<svg width="73" height="73" viewBox="0 0 73 73" fill="none" xmlns="http://www.w3.org/2000/svg">
<g filter="url(#filter0_d_75_1227)">
<circle cx="36.5" cy="32.5" r="32.5" fill="url(#paint0_linear_75_1227)"/>
</g>
<path d="M25.1363 11.0647L27.5217 15.0418L29.365 11.4056C30.4059 10.9511 30.5216 11.8223 30.4493 12.3147L26.2206 22.4279C25.4616 22.9961 24.9918 22.39 24.9195 22.087C24.9195 22.087 26.329 19.2462 26.7627 17.6554C26.8791 17.2287 26.6936 16.9609 26.6543 16.519C26.615 16.0772 24.0521 11.9738 24.0521 11.9738C23.7051 10.7011 24.6303 10.8374 25.1363 11.0647Z" fill="#222222"/>
<path d="M33.9189 17.4281C33.4852 13.1555 36.4851 11.7844 38.0392 11.6329L38.1476 11.0647C37.1067 10.5193 35.3285 11.0647 34.5695 11.4056C31.7938 12.951 31.2444 15.4585 31.3167 16.519C31.7504 22.0643 35.9068 22.9203 37.9308 22.6552V21.6325C34.9815 21.5416 34.0274 18.7917 33.9189 17.4281Z" fill="#222222"/>
<path d="M44.328 22.3143L44.6533 11.8601C44.6533 11.6329 44.8918 11.1783 45.846 11.1783C46.8001 11.1783 47.0387 11.7844 47.0387 12.0874C47.0748 15.4964 47.1254 22.3597 47.0387 22.5415C46.9519 22.7233 45.9905 22.7688 45.5207 22.7688C44.8701 22.7688 44.3641 22.5037 44.328 22.3143Z" fill="#222222"/>
<path fill-rule="evenodd" clip-rule="evenodd" d="M39.5572 11.6329L39.1235 22.7688C40.4246 23.0718 42.9618 22.7688 42.7016 19.1326C42.5931 18.6402 42.051 17.6326 40.7499 17.5417L40.9667 11.8601C40.9306 11.595 40.7282 11.042 40.2077 10.9511C39.6873 10.8602 39.5572 11.3677 39.5572 11.6329ZM40.2077 20.8371V19.4735C40.533 19.4735 41.1402 19.6326 40.9667 20.2689C40.7932 20.9052 40.3884 20.9128 40.2077 20.8371Z" fill="#222222"/>
<path d="M55.3875 36.8592L55.7128 26.405C55.7128 26.1778 55.9513 25.7233 56.9055 25.7233C57.8596 25.7233 58.0982 26.3293 58.0982 26.6323C58.1343 30.0413 58.1849 36.9046 58.0982 37.0865C58.0114 37.2683 57.05 37.3137 56.5802 37.3137C55.9296 37.3137 55.4236 37.0486 55.3875 36.8592Z" fill="#222222"/>
<path d="M16.462 27.2003H21.1244V36.859C21.3774 37.1242 21.9918 37.4954 22.4255 36.859L22.6424 26.064H14.6188C15.2332 27.2761 16.3753 30.3138 16.0283 32.7683C15.6814 35.2227 15.3055 36.0636 15.1609 36.1772C14.691 36.4803 13.7297 36.8136 13.6429 35.7227C13.6068 35.647 13.6212 35.5409 13.9682 35.7227C14.4019 35.95 14.6188 35.7227 14.7272 35.6091C14.8356 35.2303 14.7706 34.4955 13.6429 34.5864C12.5153 34.6773 12.4502 35.6091 12.5586 36.0636C12.6671 36.6318 13.3393 37.7226 15.1609 37.5408C16.9825 37.359 17.3656 33.6773 17.3294 31.8592C17.3294 30.4957 16.7512 28.1851 16.462 27.2003Z" fill="#222222"/>
<path fill-rule="evenodd" clip-rule="evenodd" d="M30.5576 25.7231C30.5576 25.7231 29.2565 27.3139 27.1963 30.2684C25.2374 33.0776 23.9797 35.3061 23.4014 36.2909C23.293 36.6318 23.8351 36.859 25.0278 36.859C25.0278 36.859 26.3696 36.859 26.4373 36.7454C26.9795 35.8363 28.1722 34.1319 28.1722 34.1319H34.0273L35.5453 36.859C35.7982 37.0105 36.391 37.1999 36.738 36.7454C36.8825 36.556 36.6295 36.1772 35.8705 34.8137C35.1115 33.4501 30.5576 25.7231 30.5576 25.7231ZM28.9312 32.6547L31.0997 28.6775L33.4851 32.6547H28.9312Z" fill="#222222"/>
<path d="M37.2801 25.7231H47.3638C48.1228 25.7231 48.5565 25.9958 48.5565 26.6322C48.5565 27.314 48.665 33.6395 48.665 36.7454C48.5927 37.0105 48.2695 37.29 47.906 37.3136C47.5073 37.3394 47.0386 36.9727 47.0386 36.7454V27.4276H39.0149V36.859C39.0149 36.859 38.9065 37.1999 38.2559 37.1999C37.6054 37.1999 37.3885 36.859 37.3885 36.859L37.2801 25.7231Z" fill="#222222"/>
<path fill-rule="evenodd" clip-rule="evenodd" d="M50.6167 26.1778L50.183 37.3137C51.4841 37.6167 54.0213 37.3137 53.7611 33.6775C53.6526 33.1851 53.1105 32.1776 51.8094 32.0866L52.0262 26.405C51.9901 26.1399 51.7877 25.5869 51.2672 25.496C50.7468 25.4051 50.6167 25.9126 50.6167 26.1778ZM51.2672 35.382V34.0184C51.5925 34.0184 52.1997 34.1775 52.0262 34.8138C51.8527 35.4502 51.4479 35.4577 51.2672 35.382Z" fill="#222222"/>
<path d="M35.0557 40.6593C35.9805 41.6284 36.1466 43.0257 35.4268 43.78C34.7069 44.5344 33.3737 44.3603 32.449 43.3912C31.5242 42.4221 31.3581 41.0249 32.0779 40.2705C32.7978 39.5161 34.131 39.6902 35.0557 40.6593Z" fill="#222222"/>
<path d="M32.2365 43.3865C33.1613 44.3556 33.3274 45.7528 32.6075 46.5072C31.8877 47.2616 30.5545 47.0875 29.6297 46.1184C28.705 45.1492 28.5389 43.752 29.2587 42.9976C29.9785 42.2432 31.3118 42.4173 32.2365 43.3865Z" fill="#222222"/>
<path d="M32.1456 47.9934C32.8633 48.7456 32.9922 49.83 32.4335 50.4155C31.8749 51.001 30.8401 50.8659 30.1224 50.1137C29.4047 49.3615 29.2758 48.2771 29.8345 47.6916C30.3931 47.1061 31.4279 47.2413 32.1456 47.9934Z" fill="#222222"/>
<path d="M38.8681 41.1755C39.5858 41.9277 39.7148 43.0121 39.1561 43.5976C38.5974 44.1831 37.5627 44.048 36.845 43.2958C36.1272 42.5437 35.9983 41.4593 36.557 40.8738C37.1157 40.2883 38.1504 40.4234 38.8681 41.1755Z" fill="#222222"/>
<path d="M39.774 45.4153C40.592 46.2725 40.4974 47.5245 39.774 47.9951C39.0952 48.4367 38.0521 47.9816 37.2802 48.7906C36.6597 49.4408 36.7381 50.0405 36.5212 50.9496C36.3044 51.8586 35.065 52.4645 34.0965 51.4495C32.511 49.7879 32.5182 47.0863 34.1126 45.4153C35.7071 43.7444 38.1885 43.7537 39.774 45.4153Z" fill="#222222"/>
<path d="M44.2255 46.6357C43.7918 42.3631 46.7917 40.992 48.3458 40.8404L48.4542 40.2723C47.4133 39.7269 45.6351 40.2723 44.8761 40.6132C42.1004 42.1586 41.551 44.6661 41.6233 45.7266C42.057 51.2719 46.2134 52.1279 48.2374 51.8627V50.8401C45.2881 50.7492 44.334 47.9993 44.2255 46.6357Z" fill="#222222"/>
<path d="M16.2452 44.018L14.7273 40.6091C14.6188 40.3818 14.1991 40.2953 13.8598 40.3818C13.5385 40.4637 13.3177 40.8363 13.3177 41.0636C13.3177 41.2908 15.161 46.0634 15.161 46.0634L12.125 51.4041C12.3852 52.495 13.39 52.1616 13.8598 51.8586L16.0284 47.8815C16.3537 48.639 17.091 50.3132 17.4379 50.9496C17.8717 51.745 18.1969 52.1995 18.8475 51.9722C19.368 51.7904 19.3535 51.2147 19.2812 50.9496L17.0042 45.9498L19.2812 41.859C19.2812 41.859 19.6333 41.2867 19.6498 40.9499C19.6605 40.7314 19.5945 40.5249 19.3896 40.3818C18.8692 40.0182 18.4499 40.2303 18.3054 40.3818L16.2452 44.018Z" fill="#222222"/>
<path fill-rule="evenodd" clip-rule="evenodd" d="M24.5942 40.2682H21.6666V51.4041H24.7026C25.2447 51.4041 25.9363 50.8372 26.4374 50.1541C27.101 49.2497 27.2642 48.4392 27.088 47.3133C26.9093 46.1714 25.9314 44.9649 25.57 44.8134C26.2639 44.5407 26.6568 43.1983 26.4374 42.1999C26.209 41.1602 25.2447 40.2682 24.5942 40.2682ZM24.5942 41.7454V44.1316C24.8833 44.0938 25.4616 43.7907 25.4616 42.8817C25.4616 41.9726 24.8833 41.7454 24.5942 41.7454ZM24.5942 50.0405V45.6089C25.0279 45.6467 25.917 46.1316 26.0037 47.7679C26.0905 49.4042 25.1001 49.9648 24.5942 50.0405Z" fill="#222222"/>
<path fill-rule="evenodd" clip-rule="evenodd" d="M58.7488 40.2682H49.3156C49.1421 40.2682 49.0988 40.4197 49.0988 40.4954V42.8817C49.0988 43.1544 49.5325 43.2226 49.7493 43.2226H52.46C52.6335 43.2226 52.6769 43.5256 52.6769 43.6771C52.6046 44.9649 52.7419 47.9951 53.8696 49.8132C55.2791 52.0859 56.9055 52.4268 58.8572 52.1995C60.4186 52.0177 61.4595 50.0026 61.7848 49.0178C61.9655 48.4497 62.0667 47.1997 61.0258 46.7452C60.0316 46.3111 59.3045 47.8463 58.9106 48.6781L58.9104 48.6786C58.8919 48.7175 58.8742 48.755 58.8572 48.7906C58.5319 49.4723 57.7729 49.8132 56.9055 49.2451C56.1146 48.727 55.8213 47.9951 55.6044 46.8588C55.3875 45.7225 55.3875 44.1316 55.3875 43.6771C55.3875 43.3135 55.3875 43.2226 55.6044 43.2226H58.6404C59.0368 43.2226 59.1313 43.0011 59.1722 42.9051L59.1769 42.8941C59.1789 42.8896 59.1807 42.8854 59.1825 42.8817V40.7227C59.1825 40.3591 58.8934 40.2682 58.7488 40.2682ZM53.7611 47.6542H55.1707C55.1872 47.7063 55.2035 47.766 55.2212 47.831C55.2619 47.9804 55.3103 48.158 55.3875 48.336C55.4267 48.4264 55.496 48.5633 55.496 48.5633C55.2068 48.7906 54.8454 49.2451 54.6286 49.8132C54.1948 49.3587 53.6527 48.336 53.7611 47.6542ZM57.4477 50.0405C57.1007 50.0405 56.4718 49.6996 56.255 49.4723C55.7345 49.836 55.6044 50.6844 55.6044 50.9496C56.255 51.6314 57.1585 51.745 57.5561 51.745C57.4694 51.1996 57.4477 50.3814 57.4477 50.0405ZM58.3151 50.0405C58.3874 50.0026 58.597 49.8814 58.8572 49.6996C59.0018 49.9269 59.4427 50.4723 60.0499 50.8359C59.9491 51.1164 59.5259 51.6681 58.6404 51.6314C58.5319 51.4041 58.3151 50.7677 58.3151 50.0405ZM59.4321 48.7156C59.4207 48.7416 59.4098 48.7667 59.3994 48.7906C59.3994 48.7906 60.4836 50.2678 60.9174 49.8132C61.0858 49.4962 61.2073 49.1847 61.2773 48.954C61.3932 48.5571 61.4581 47.6839 60.7904 47.3663C60.1514 47.0624 59.6844 48.1357 59.4321 48.7156Z" fill="#222222"/>
<path d="M16.7875 11.8602C16.3176 11.9359 15.5297 12.3147 16.1369 13.2238C16.7441 14.1328 18.9922 14.5116 20.0403 14.5873L26.1122 15.2691M26.3291 18.7917C22.7871 18.6023 15.5514 18.7235 14.9442 20.7235" stroke="#222222" stroke-linecap="round" stroke-linejoin="round"/>
<path d="M13.3176 15.0419C13.4261 15.5722 14.5103 16.6782 17.98 16.86C21.4497 17.0418 25.2085 17.0115 26.6542 16.9736" stroke="#222222" stroke-width="1.5" stroke-linecap="round" stroke-linejoin="round"/>
<path d="M46.0626 18.7917C49.6046 18.6023 56.8403 18.7235 57.4475 20.7234M46.7132 15.1555H53.1104C53.9055 15.1555 55.5826 14.8146 55.9295 13.451C56.3632 11.7465 55.0621 11.7726 54.7368 11.8601C54.3308 11.9694 54.0863 12.3147 53.9778 12.6556" stroke="#222222" stroke-linecap="round" stroke-linejoin="round"/>
<path d="M59.0742 15.0419C58.9657 15.5722 57.8815 16.6782 54.4118 16.86C50.9421 17.0418 47.1833 17.0115 45.7376 16.9736" stroke="#222222" stroke-width="1.5" stroke-linecap="round" stroke-linejoin="round"/>
<defs>
<filter id="filter0_d_75_1227" x="0" y="0" width="73" height="73" filterUnits="userSpaceOnUse" color-interpolation-filters="sRGB">
<feFlood flood-opacity="0" result="BackgroundImageFix"/>
<feColorMatrix in="SourceAlpha" type="matrix" values="0 0 0 0 0 0 0 0 0 0 0 0 0 0 0 0 0 0 127 0" result="hardAlpha"/>
<feOffset dy="4"/>
<feGaussianBlur stdDeviation="2"/>
<feComposite in2="hardAlpha" operator="out"/>
<feColorMatrix type="matrix" values="0 0 0 0 0 0 0 0 0 0 0 0 0 0 0 0 0 0 0.25 0"/>
<feBlend mode="normal" in2="BackgroundImageFix" result="effect1_dropShadow_75_1227"/>
<feBlend mode="normal" in="SourceGraphic" in2="effect1_dropShadow_75_1227" result="shape"/>
</filter>
<linearGradient id="paint0_linear_75_1227" x1="4" y1="0" x2="69" y2="65" gradientUnits="userSpaceOnUse">
<stop stop-color="#BDDFE0"/>
<stop offset="1" stop-color="#639596"/>
</linearGradient>
</defs>
</svg>
