<svg width="50" height="43" viewBox="0 0 50 43" fill="none" xmlns="http://www.w3.org/2000/svg">
<path d="M13.1363 1.0647L15.5217 5.04182L17.365 1.4056C18.4059 0.951074 18.5216 1.82225 18.4493 2.31466L14.2206 12.4279C13.4616 12.9961 12.9918 12.39 12.9195 12.087C12.9195 12.087 14.329 9.24622 14.7627 7.65536C14.8791 7.22868 14.6936 6.96089 14.6543 6.51904C14.615 6.07719 12.0521 1.97376 12.0521 1.97376C11.7051 0.701082 12.6303 0.83744 13.1363 1.0647Z" fill="#222222"/>
<path d="M21.9189 7.42809C21.4852 3.15553 24.4851 1.78437 26.0392 1.63286L26.1476 1.06471C25.1067 0.519272 23.3285 1.06471 22.5695 1.4056C19.7938 2.951 19.2444 5.45847 19.3167 6.51904C19.7504 12.0643 23.9068 12.9203 25.9308 12.6552V11.6325C22.9815 11.5416 22.0274 8.79168 21.9189 7.42809Z" fill="#222222"/>
<path d="M32.328 12.3143L32.6533 1.86013C32.6533 1.63287 32.8918 1.17834 33.846 1.17834C34.8001 1.17834 35.0387 1.78438 35.0387 2.0874C35.0748 5.49636 35.1254 12.3597 35.0387 12.5415C34.9519 12.7233 33.9905 12.7688 33.5207 12.7688C32.8701 12.7688 32.3641 12.5037 32.328 12.3143Z" fill="#222222"/>
<path fill-rule="evenodd" clip-rule="evenodd" d="M27.5572 1.63286L27.1235 12.7688C28.4246 13.0718 30.9618 12.7688 30.7016 9.13258C30.5931 8.64018 30.051 7.63264 28.7499 7.54173L28.9667 1.86013C28.9306 1.59499 28.7282 1.04198 28.2077 0.951079C27.6873 0.860173 27.5572 1.36773 27.5572 1.63286ZM28.2077 10.8371V9.47347C28.533 9.47347 29.1402 9.63256 28.9667 10.2689C28.7932 10.9052 28.3884 10.9128 28.2077 10.8371Z" fill="#222222"/>
<path d="M43.3875 26.8592L43.7128 16.405C43.7128 16.1778 43.9513 15.7233 44.9055 15.7233C45.8596 15.7233 46.0982 16.3293 46.0982 16.6323C46.1343 20.0413 46.1849 26.9046 46.0982 27.0865C46.0114 27.2683 45.05 27.3137 44.5802 27.3137C43.9296 27.3137 43.4236 27.0486 43.3875 26.8592Z" fill="#222222"/>
<path d="M4.46202 17.2003H9.12441V26.859C9.3774 27.1242 9.99183 27.4954 10.4255 26.859L10.6424 16.064H2.61876C3.23318 17.2761 4.37529 20.3138 4.02832 22.7683C3.68135 25.2227 3.30547 26.0636 3.1609 26.1772C2.69105 26.4803 1.72966 26.8136 1.64291 25.7227C1.60677 25.647 1.62123 25.5409 1.9682 25.7227C2.40191 25.95 2.61876 25.7227 2.72718 25.6091C2.83561 25.2303 2.77056 24.4955 1.64291 24.5864C0.515265 24.6773 0.450208 25.6091 0.558635 26.0636C0.667066 26.6318 1.33932 27.7226 3.1609 27.5408C4.98248 27.359 5.36559 23.6773 5.32944 21.8592C5.32944 20.4957 4.75116 18.1851 4.46202 17.2003Z" fill="#222222"/>
<path fill-rule="evenodd" clip-rule="evenodd" d="M18.5576 15.7231C18.5576 15.7231 17.2565 17.3139 15.1963 20.2684C13.2374 23.0776 11.9797 25.3061 11.4014 26.2909C11.293 26.6318 11.8351 26.859 13.0278 26.859C13.0278 26.859 14.3696 26.859 14.4373 26.7454C14.9795 25.8363 16.1722 24.1319 16.1722 24.1319H22.0273L23.5453 26.859C23.7982 27.0105 24.391 27.1999 24.738 26.7454C24.8825 26.556 24.6295 26.1772 23.8705 24.8137C23.1115 23.4501 18.5576 15.7231 18.5576 15.7231ZM16.9312 22.6547L19.0997 18.6775L21.4851 22.6547H16.9312Z" fill="#222222"/>
<path d="M25.2801 15.7231H35.3638C36.1228 15.7231 36.5565 15.9958 36.5565 16.6322C36.5565 17.314 36.665 23.6395 36.665 26.7454C36.5927 27.0105 36.2695 27.29 35.906 27.3136C35.5073 27.3394 35.0386 26.9727 35.0386 26.7454V17.4276H27.0149V26.859C27.0149 26.859 26.9065 27.1999 26.2559 27.1999C25.6054 27.1999 25.3885 26.859 25.3885 26.859L25.2801 15.7231Z" fill="#222222"/>
<path fill-rule="evenodd" clip-rule="evenodd" d="M38.6167 16.1778L38.183 27.3137C39.4841 27.6167 42.0213 27.3137 41.7611 23.6775C41.6526 23.1851 41.1105 22.1776 39.8094 22.0866L40.0262 16.405C39.9901 16.1399 39.7877 15.5869 39.2672 15.496C38.7468 15.4051 38.6167 15.9126 38.6167 16.1778ZM39.2672 25.382V24.0184C39.5925 24.0184 40.1997 24.1775 40.0262 24.8138C39.8527 25.4502 39.4479 25.4577 39.2672 25.382Z" fill="#222222"/>
<path d="M23.0557 30.6593C23.9805 31.6284 24.1466 33.0257 23.4268 33.78C22.7069 34.5344 21.3737 34.3603 20.449 33.3912C19.5242 32.4221 19.3581 31.0249 20.0779 30.2705C20.7978 29.5161 22.131 29.6902 23.0557 30.6593Z" fill="#222222"/>
<path d="M20.2365 33.3865C21.1613 34.3556 21.3274 35.7528 20.6075 36.5072C19.8877 37.2616 18.5545 37.0875 17.6297 36.1184C16.705 35.1492 16.5389 33.752 17.2587 32.9976C17.9785 32.2432 19.3118 32.4173 20.2365 33.3865Z" fill="#222222"/>
<path d="M20.1456 37.9934C20.8633 38.7456 20.9922 39.83 20.4335 40.4155C19.8749 41.001 18.8401 40.8659 18.1224 40.1137C17.4047 39.3615 17.2758 38.2771 17.8345 37.6916C18.3931 37.1061 19.4279 37.2413 20.1456 37.9934Z" fill="#222222"/>
<path d="M26.8681 31.1755C27.5858 31.9277 27.7148 33.0121 27.1561 33.5976C26.5974 34.1831 25.5627 34.048 24.845 33.2958C24.1272 32.5437 23.9983 31.4593 24.557 30.8738C25.1157 30.2883 26.1504 30.4234 26.8681 31.1755Z" fill="#222222"/>
<path d="M27.774 35.4153C28.592 36.2725 28.4974 37.5245 27.774 37.9951C27.0952 38.4367 26.0521 37.9816 25.2802 38.7906C24.6597 39.4408 24.7381 40.0405 24.5212 40.9496C24.3044 41.8586 23.065 42.4645 22.0965 41.4495C20.511 39.7879 20.5182 37.0863 22.1126 35.4153C23.7071 33.7444 26.1885 33.7537 27.774 35.4153Z" fill="#222222"/>
<path d="M32.2255 36.6357C31.7918 32.3631 34.7917 30.992 36.3458 30.8404L36.4542 30.2723C35.4133 29.7269 33.6351 30.2723 32.8761 30.6132C30.1004 32.1586 29.551 34.6661 29.6233 35.7266C30.057 41.2719 34.2134 42.1279 36.2374 41.8627V40.8401C33.2881 40.7492 32.334 37.9993 32.2255 36.6357Z" fill="#222222"/>
<path d="M4.24524 34.018L2.72726 30.6091C2.61883 30.3818 2.19912 30.2953 1.85984 30.3818C1.5385 30.4637 1.3177 30.8363 1.3177 31.0636C1.3177 31.2908 3.16097 36.0634 3.16097 36.0634L0.125 41.4041C0.385226 42.495 1.38999 42.1616 1.85984 41.8586L4.02839 37.8815C4.35367 38.639 5.09098 40.3132 5.43794 40.9496C5.87165 41.745 6.19694 42.1995 6.8475 41.9722C7.36795 41.7904 7.3535 41.2147 7.28121 40.9496L5.00423 35.9498L7.28121 31.859C7.28121 31.859 7.63326 31.2867 7.64976 30.9499C7.66047 30.7314 7.59447 30.5249 7.38964 30.3818C6.86919 30.0182 6.44993 30.2303 6.30536 30.3818L4.24524 34.018Z" fill="#222222"/>
<path fill-rule="evenodd" clip-rule="evenodd" d="M12.5942 30.2682H9.66661V41.4041H12.7026C13.2447 41.4041 13.9363 40.8372 14.4374 40.1541C15.101 39.2497 15.2642 38.4392 15.088 37.3133C14.9093 36.1714 13.9314 34.9649 13.57 34.8134C14.2639 34.5407 14.6568 33.1983 14.4374 32.1999C14.209 31.1602 13.2447 30.2682 12.5942 30.2682ZM12.5942 31.7454V34.1316C12.8833 34.0938 13.4616 33.7907 13.4616 32.8817C13.4616 31.9726 12.8833 31.7454 12.5942 31.7454ZM12.5942 40.0405V35.6089C13.0279 35.6467 13.917 36.1316 14.0037 37.7679C14.0905 39.4042 13.1001 39.9648 12.5942 40.0405Z" fill="#222222"/>
<path fill-rule="evenodd" clip-rule="evenodd" d="M46.7488 30.2682H37.3156C37.1421 30.2682 37.0988 30.4197 37.0988 30.4954V32.8817C37.0988 33.1544 37.5325 33.2226 37.7493 33.2226H40.46C40.6335 33.2226 40.6769 33.5256 40.6769 33.6771C40.6046 34.9649 40.7419 37.9951 41.8696 39.8132C43.2791 42.0859 44.9055 42.4268 46.8572 42.1995C48.4186 42.0177 49.4595 40.0026 49.7848 39.0178C49.9655 38.4497 50.0667 37.1997 49.0258 36.7452C48.0316 36.3111 47.3045 37.8463 46.9106 38.6781L46.9104 38.6786C46.8919 38.7175 46.8742 38.755 46.8572 38.7906C46.5319 39.4723 45.7729 39.8132 44.9055 39.2451C44.1146 38.727 43.8213 37.9951 43.6044 36.8588C43.3875 35.7225 43.3875 34.1316 43.3875 33.6771C43.3875 33.3135 43.3875 33.2226 43.6044 33.2226H46.6404C47.0368 33.2226 47.1313 33.0011 47.1722 32.9051L47.1769 32.8941C47.1789 32.8896 47.1807 32.8854 47.1825 32.8817V30.7227C47.1825 30.3591 46.8934 30.2682 46.7488 30.2682ZM41.7611 37.6542H43.1707C43.1872 37.7063 43.2035 37.766 43.2212 37.831C43.2619 37.9804 43.3103 38.158 43.3875 38.336C43.4267 38.4264 43.496 38.5633 43.496 38.5633C43.2068 38.7906 42.8454 39.2451 42.6286 39.8132C42.1948 39.3587 41.6527 38.336 41.7611 37.6542ZM45.4477 40.0405C45.1007 40.0405 44.4718 39.6996 44.255 39.4723C43.7345 39.836 43.6044 40.6844 43.6044 40.9496C44.255 41.6314 45.1585 41.745 45.5561 41.745C45.4694 41.1996 45.4477 40.3814 45.4477 40.0405ZM46.3151 40.0405C46.3874 40.0026 46.597 39.8814 46.8572 39.6996C47.0018 39.9269 47.4427 40.4723 48.0499 40.8359C47.9491 41.1164 47.5259 41.6681 46.6404 41.6314C46.5319 41.4041 46.3151 40.7677 46.3151 40.0405ZM47.4321 38.7156C47.4207 38.7416 47.4098 38.7667 47.3994 38.7906C47.3994 38.7906 48.4836 40.2678 48.9174 39.8132C49.0858 39.4962 49.2073 39.1847 49.2773 38.954C49.3932 38.5571 49.4581 37.6839 48.7904 37.3663C48.1514 37.0624 47.6844 38.1357 47.4321 38.7156Z" fill="#222222"/>
<path d="M4.78748 1.86017C4.31763 1.93592 3.52972 2.3147 4.13692 3.22375C4.74411 4.13281 6.99217 4.51158 8.0403 4.58734L14.1122 5.26913M14.3291 8.79172C10.7871 8.60233 3.55141 8.72354 2.94421 10.7235" stroke="#222222" stroke-linecap="round" stroke-linejoin="round"/>
<path d="M1.31763 5.04187C1.42605 5.57215 2.51033 6.67817 5.98001 6.85998C9.44968 7.04179 13.2085 7.01149 14.6542 6.97361" stroke="#222222" stroke-width="1.5" stroke-linecap="round" stroke-linejoin="round"/>
<path d="M34.0626 8.79169C37.6046 8.60231 44.8403 8.72351 45.4475 10.7234M34.7132 5.15547H41.1104C41.9055 5.15547 43.5826 4.81457 43.9295 3.45099C44.3632 1.74651 43.0621 1.77257 42.7368 1.86014C42.3308 1.96944 42.0863 2.31467 41.9778 2.65556" stroke="#222222" stroke-linecap="round" stroke-linejoin="round"/>
<path d="M47.0742 5.04187C46.9657 5.57215 45.8815 6.67817 42.4118 6.85998C38.9421 7.04179 35.1833 7.01149 33.7376 6.97361" stroke="#222222" stroke-width="1.5" stroke-linecap="round" stroke-linejoin="round"/>
</svg>
