<svg width="15" height="20" viewBox="0 0 15 20" fill="none" xmlns="http://www.w3.org/2000/svg">
<path d="M7.5 12.2222C5.13307 12.2222 3.21429 10.2324 3.21429 7.77778C3.21429 5.32318 5.13307 3.33333 7.5 3.33333C9.86693 3.33333 11.7857 5.32318 11.7857 7.77778C11.7857 10.2324 9.86693 12.2222 7.5 12.2222ZM7.5 11.1111C9.2752 11.1111 10.7143 9.61873 10.7143 7.77778C10.7143 5.93683 9.2752 4.44444 7.5 4.44444C5.7248 4.44444 4.28571 5.93683 4.28571 7.77778C4.28571 9.61873 5.7248 11.1111 7.5 11.1111ZM7.86336 19.8527C7.65815 20.0491 7.34185 20.0491 7.13664 19.8527C2.39446 15.3132 0 11.3019 0 7.77778C0 3.48223 3.35786 0 7.5 0C11.6421 0 15 3.48223 15 7.77778C15 11.3019 12.6055 15.3132 7.86336 19.8527ZM13.9286 7.77778C13.9286 4.09588 11.0504 1.11111 7.5 1.11111C3.9496 1.11111 1.07143 4.09588 1.07143 7.77778C1.07143 10.8354 3.19993 14.4837 7.5 18.6849C11.8001 14.4837 13.9286 10.8354 13.9286 7.77778Z" fill="white"/>
</svg>
