<svg width="20" height="20" viewBox="0 0 20 20" fill="none" xmlns="http://www.w3.org/2000/svg">
<path d="M19.5687 16.3411L16.496 13.262C15.6335 12.3977 14.2351 12.3977 13.3725 13.262L12.8918 13.7438C12.4904 14.146 12.2326 14.6374 12.1168 15.1542C11.0753 15.1737 9.89748 14.9962 8.89006 14.3413C8.27924 13.8865 7.69236 13.3802 7.14176 12.8284C6.67458 12.3603 6.24255 11.8697 5.84867 11.3637C5.06354 10.3066 4.85634 9.02387 4.8773 7.89959C5.39306 7.78362 5.88338 7.52532 6.28479 7.12303L6.76552 6.6413C7.62804 5.77698 7.62804 4.37564 6.76552 3.51128L3.69282 0.432169C3.11779 -0.144056 2.18549 -0.144056 1.61051 0.432169L1.08297 0.960926C0.406694 1.63861 0.0605047 2.52126 0.0425035 3.40937C-0.130672 5.28316 0.227451 7.3459 1.0782 9.37463C1.63992 10.7141 2.41113 12.022 3.35039 13.2377C3.36224 13.2536 3.37349 13.2697 3.3855 13.2855L3.38688 13.2845C3.86223 13.8958 4.3799 14.4836 4.93502 15.0399C5.51369 15.6198 6.12063 16.1545 6.74837 16.6412L6.74222 16.6493C6.84954 16.7309 6.95795 16.8086 7.06717 16.8829C9.74757 18.8696 12.7771 19.9857 15.5964 19.9856C15.7611 19.9855 15.9252 19.9808 16.0885 19.9732C17.1386 20.1025 18.2351 19.7643 19.0412 18.9566L19.5688 18.4278C20.1438 17.8516 20.1438 16.9174 19.5687 16.3411Z" fill="white"/>
</svg>
